# xmcd
#
# Track frame offsets: 
#        150
#        94205
#        171075
#        257697
#
# Disc length: 3592 seconds
#
# Revision: 0
# Processed by: cddbd v1.5.2PL0 Copyright (c) Steve Scherf et al.
# Submitted via: ExactAudioCopy v1.0b3
#
DISCID=2c0e0604
DTITLE=Chalima - Pearl of the Universe
DYEAR=2001
DGENRE=New Age
TTITLE0=EL*AN*RA (the Belt of Orion)
TTITLE1=Pearl of the Universe, Part 1 (In a New World)
TTITLE2=Pearl of the Universe, Part 2 (On Our Way to Cosmic Wisdom)
TTITLE3=Pearl of the Universe, Part 3 (Days to Come)
EXTD=
EXTT0=
EXTT1=
EXTT2=
EXTT3=
PLAYORDER=
